<svg xmlns="http://www.w3.org/2000/svg" xmlns:xlink="http://www.w3.org/1999/xlink" width="1080" zoomAndPan="magnify" viewBox="0 0 810 809.999993" height="1080" preserveAspectRatio="xMidYMid meet" version="1.0"><defs><g/></defs><g fill="current" fill-opacity="1"><g transform="translate(114.284141, 461.444092)"><g><path d="M 53.890625 -84.421875 L 65.015625 -84.421875 C 75.410156 -84.421875 83.1875 -86.472656 88.34375 -90.578125 C 93.507812 -94.691406 96.09375 -100.675781 96.09375 -108.53125 C 96.09375 -116.457031 93.925781 -122.3125 89.59375 -126.09375 C 85.269531 -129.875 78.492188 -131.765625 69.265625 -131.765625 L 53.890625 -131.765625 Z M 130.234375 -109.734375 C 130.234375 -92.566406 124.867188 -79.4375 114.140625 -70.34375 C 103.421875 -61.257812 88.171875 -56.71875 68.390625 -56.71875 L 53.890625 -56.71875 L 53.890625 0 L 20.0625 0 L 20.0625 -159.46875 L 71.015625 -159.46875 C 90.359375 -159.46875 105.0625 -155.304688 115.125 -146.984375 C 125.195312 -138.660156 130.234375 -126.242188 130.234375 -109.734375 Z M 130.234375 -109.734375 "/></g></g></g><g fill="current" fill-opacity="1"><g transform="translate(254.540551, 461.444092)"><g><path d="M 164.8125 -79.953125 C 164.8125 -53.554688 158.265625 -33.265625 145.171875 -19.078125 C 132.085938 -4.898438 113.328125 2.1875 88.890625 2.1875 C 64.460938 2.1875 45.703125 -4.898438 32.609375 -19.078125 C 19.523438 -33.265625 12.984375 -53.628906 12.984375 -80.171875 C 12.984375 -106.710938 19.546875 -126.984375 32.671875 -140.984375 C 45.796875 -154.984375 64.609375 -161.984375 89.109375 -161.984375 C 113.617188 -161.984375 132.363281 -154.925781 145.34375 -140.8125 C 158.320312 -126.707031 164.8125 -106.421875 164.8125 -79.953125 Z M 48.4375 -79.953125 C 48.4375 -62.140625 51.816406 -48.722656 58.578125 -39.703125 C 65.335938 -30.679688 75.441406 -26.171875 88.890625 -26.171875 C 115.867188 -26.171875 129.359375 -44.097656 129.359375 -79.953125 C 129.359375 -115.878906 115.941406 -133.84375 89.109375 -133.84375 C 75.660156 -133.84375 65.519531 -129.3125 58.6875 -120.25 C 51.851562 -111.195312 48.4375 -97.765625 48.4375 -79.953125 Z M 48.4375 -79.953125 "/></g></g></g><g fill="current" fill-opacity="1"><g transform="translate(432.315004, 461.444092)"><g><path d="M 53.890625 -84.421875 L 65.015625 -84.421875 C 75.410156 -84.421875 83.1875 -86.472656 88.34375 -90.578125 C 93.507812 -94.691406 96.09375 -100.675781 96.09375 -108.53125 C 96.09375 -116.457031 93.925781 -122.3125 89.59375 -126.09375 C 85.269531 -129.875 78.492188 -131.765625 69.265625 -131.765625 L 53.890625 -131.765625 Z M 130.234375 -109.734375 C 130.234375 -92.566406 124.867188 -79.4375 114.140625 -70.34375 C 103.421875 -61.257812 88.171875 -56.71875 68.390625 -56.71875 L 53.890625 -56.71875 L 53.890625 0 L 20.0625 0 L 20.0625 -159.46875 L 71.015625 -159.46875 C 90.359375 -159.46875 105.0625 -155.304688 115.125 -146.984375 C 125.195312 -138.660156 130.234375 -126.242188 130.234375 -109.734375 Z M 130.234375 -109.734375 "/></g></g></g><g fill="current" fill-opacity="1"><g transform="translate(572.571414, 461.444092)"><g><path d="M 114.203125 -44.28125 C 114.203125 -29.882812 109.019531 -18.539062 98.65625 -10.25 C 88.289062 -1.957031 73.875 2.1875 55.40625 2.1875 C 38.394531 2.1875 23.34375 -1.015625 10.25 -7.421875 L 10.25 -38.828125 C 21.007812 -34.023438 30.113281 -30.644531 37.5625 -28.6875 C 45.019531 -26.726562 51.84375 -25.75 58.03125 -25.75 C 65.445312 -25.75 71.132812 -27.164062 75.09375 -30 C 79.0625 -32.832031 81.046875 -37.050781 81.046875 -42.65625 C 81.046875 -45.78125 80.171875 -48.554688 78.421875 -50.984375 C 76.679688 -53.421875 74.117188 -55.765625 70.734375 -58.015625 C 67.359375 -60.273438 60.46875 -63.878906 50.0625 -68.828125 C 40.320312 -73.410156 33.015625 -77.8125 28.140625 -82.03125 C 23.265625 -86.25 19.375 -91.15625 16.46875 -96.75 C 13.5625 -102.351562 12.109375 -108.898438 12.109375 -116.390625 C 12.109375 -130.492188 16.890625 -141.582031 26.453125 -149.65625 C 36.015625 -157.726562 49.226562 -161.765625 66.09375 -161.765625 C 74.382812 -161.765625 82.289062 -160.78125 89.8125 -158.8125 C 97.34375 -156.851562 105.21875 -154.09375 113.4375 -150.53125 L 102.53125 -124.234375 C 94.019531 -127.722656 86.984375 -130.160156 81.421875 -131.546875 C 75.859375 -132.929688 70.390625 -133.625 65.015625 -133.625 C 58.609375 -133.625 53.695312 -132.128906 50.28125 -129.140625 C 46.863281 -126.160156 45.15625 -122.269531 45.15625 -117.46875 C 45.15625 -114.488281 45.84375 -111.890625 47.21875 -109.671875 C 48.601562 -107.453125 50.804688 -105.304688 53.828125 -103.234375 C 56.847656 -101.171875 63.992188 -97.445312 75.265625 -92.0625 C 90.171875 -84.9375 100.382812 -77.789062 105.90625 -70.625 C 111.4375 -63.46875 114.203125 -54.6875 114.203125 -44.28125 Z M 114.203125 -44.28125 "/></g></g></g></svg>