<svg xmlns="http://www.w3.org/2000/svg" xml:space="preserve" id="backhoe__main_shape" x="0" y="0" version="1.0" viewBox="0 0 32 32" class="backhoe" style="background-image: none; background-position: 0% 0%; display: inline; fill: rgb(51, 51, 51); height: 50px; width: 50px;"><path d="M25.375 27.312c-.417 0-.79-.259-.937-.649l-.159-.426a3.78 3.78 0 0 1-2.654 1.075 3.82 3.82 0 0 1-3.68-2.812h-2.488c-.889 1.707-2.663 2.812-4.613 2.812S7.12 26.207 6.23 24.5H3.812c-1.123 0-1.938-.814-1.938-1.938 0-.898.521-1.599 1.304-1.844l.268-1.279-.62-.196c-.672-.211-1.042-.328-1.337-.475C.41 18.341 0 17.509 0 16.938v-2.812q0-.071.01-.142l.928-6.5a2.88 2.88 0 0 1 2.874-2.796 2.88 2.88 0 0 1 2.856 2.544L7.721 8.81a1 1 0 0 1 .779-.372h8.438a1 1 0 0 1 .707 1.707l-.559.559.477 2.385 7.138 1.947c.392.107.68.439.729.841l.126 1.006.135.044a1 1 0 0 1 .661.732l.288 1.299a1 1 0 0 1 .611-.207c.376 0 .724.212.895.553l2.74 5.479.822.823a1 1 0 0 1-.707 1.707z" class="outline" style="fill: rgb(255, 255, 255);"></path><path d="M25.375 23.5h-11.25V13.188L24.438 16z" class="primary" style="fill: rgb(242, 169, 0);"></path><path d="M14.125 17.875v2.813h4.687l-.937 1.874h-3.75v.938h11.25v-2.812z" class="shadow" style="opacity: 0.3; fill: rgb(51, 51, 51);"></path><path d="m10.375 21.625-6.562.938s1.875-8.812 1.875-9.375v-.938L3.812 6.625l1.875.938 3.75 5.625z" class="secondary" style="fill: rgb(128, 128, 130);"></path><path d="M8.5 10.375H16l1.875 9.375H12.25L6.625 23.5v-3.75zM5.688 7.562c0-1.031-.844-1.875-1.875-1.875s-1.875.844-1.875 1.875L1 14.125v2.812l2.812-1.875s1.876-7.218 1.876-7.5" class="tertiary" style="fill: rgb(51, 51, 51);"></path><path d="m6.625 16-2.812-3.75v1.875L1 16.938s0 .562.938.938c.375.188 1.125.375 2.812.938a1.88 1.88 0 0 0 1.875-1.875zM8.5 9.438h8.438l-.938.937H8.5zM3.812 21.625c-.562 0-.938.375-.938.938s.376.937.938.937h6.562l-3.75-3.75z" class="primary" style="fill: rgb(242, 169, 0);"></path><path d="m27.25 26.312-1.875-8.438s-5.625-1.875-6.562-1.875c-.562 0-.938.375-.938.938s.375.938.938.938l3.75.938 2.812 7.5z" class="secondary" style="fill: rgb(128, 128, 130);"></path><circle cx="10.844" cy="22.094" r="4.219" class="tertiary" style="fill: rgb(51, 51, 51);"></circle><circle cx="10.844" cy="22.094" r="2.344" class="primary" style="fill: rgb(242, 169, 0);"></circle><circle cx="21.625" cy="23.5" r="2.812" class="tertiary" style="fill: rgb(51, 51, 51);"></circle><circle cx="21.625" cy="23.5" r="1.406" class="primary" style="fill: rgb(242, 169, 0);"></circle><path d="m27.25 19.75 2.812 5.625.938.937h-5.625z" class="tertiary" style="fill: rgb(51, 51, 51);"></path><path d="M13.188 16.938H7.562l.938.937h4.688l1.874.937z" class="secondary" style="fill: rgb(128, 128, 130);"></path><path d="M11.781 16H8.5l.938-4.688h2.344zm3.281-4.688H12.25V16h1.875L16 18.812h.938z" class="quaterary" style="fill: rgb(187, 227, 243);"></path><path d="M25.375 19.75h-2.437l-.376-.938z" class="shadow" style="opacity: 0.3; fill: rgb(51, 51, 51);"></path></svg>