<svg xmlns="http://www.w3.org/2000/svg" xml:space="preserve" id="crawler__main_shape" x="0" y="0" version="1.0" viewBox="0 0 32 32" class="crawler" style="background-image: none; background-position: 0% 0%; display: inline; fill: rgb(51, 51, 51); height: 50px; width: 50px;"><path d="M28.844 27.312a1 1 0 0 1-.507-.138l-1.384-.814-5.883-.309a4.72 4.72 0 0 1-3.195 1.261H6.625A4.74 4.74 0 0 1 2.304 24.5H1a1 1 0 0 1-1-1v-4.688a1 1 0 0 1 .051-.316l.938-2.812A1 1 0 0 1 1.938 15h1.34l1.468-2.203.667-3.335a1 1 0 0 1-.725-.962V5.688a1 1 0 0 1 1-1h9.375a1 1 0 0 1 1 1v.838l.787 3.937.025.005V8.5c0-.265.105-.52.293-.707l1.875-1.875a1 1 0 0 1 1.705.644h.877a1 1 0 0 1 .943.667l1.662 4.709.403.081a1 1 0 0 1 .804.98v2.36l.42 1.189 2.373-4.747c.17-.339.516-.553.895-.553h.938a1.003 1.003 0 0 1 .987 1.165l-.912 5.472.893 6.249.865 1.729A1.004 1.004 0 0 1 31 27.312zm-7.976-16.045-.693-2.08a5 5 0 0 1-.362.591v1.277z" class="outline" style="fill: rgb(255, 255, 255);"></path><path d="M17.875 8.5v3.75h.938V9.438c.469-.562.938-1.406.938-2.812-.939.936-1.876 1.874-1.876 1.874" class="secondary" style="fill: rgb(128, 128, 130);"></path><path d="m16 11.312-.938-4.687H5.688V8.5h.937l-.937 4.688v7.5h18.75V13z" class="tertiary" style="fill: rgb(51, 51, 51);"></path><path d="M21.625 13.188H16V16h-4.688v-.938L8.5 13.188H5.688L3.812 16H1.938L1 18.812V23.5h7.5l10.312-2.812L21.625 16z" class="primary" style="fill: rgb(242, 169, 0);"></path><path d="M16 16v-2.812h5.625V16l-2.813 4.688L8.5 23.5H1v-4.688L1.938 16h1.874v1.875h9.376z" class="shadow" style="opacity: 0.3; fill: rgb(51, 51, 51);"></path><path d="M17.875 18.812H6.625c-2.062 0-3.75 1.688-3.75 3.75s1.688 3.75 3.75 3.75h11.25c2.062 0 3.75-1.688 3.75-3.75s-1.687-3.75-3.75-3.75M5.688 5.688h9.375v.938H5.688z" class="primary" style="fill: rgb(242, 169, 0);"></path><path d="M15.062 15.062H12.25v-7.5h1.875l.937 4.688zM7.562 11.312l3.75 1.876V7.562h-3.75z" class="quaterary" style="fill: rgb(187, 227, 243);"></path><path d="M27.25 23.5 21.625 7.562h-.937l4.687 14.063L23.5 23.5z" class="secondary" style="fill: rgb(128, 128, 130);"></path><path d="M17.875 19.75H6.625c-1.594 0-2.812 1.219-2.812 2.812s1.219 2.812 2.812 2.812h11.25c1.594 0 2.812-1.219 2.812-2.812s-1.218-2.812-2.812-2.812m-11.25 4.688c-1.031 0-1.875-.844-1.875-1.875s.844-1.875 1.875-1.875 1.875.843 1.875 1.874-.844 1.876-1.875 1.876" class="shadow" style="opacity: 0.3; fill: rgb(51, 51, 51);"></path><path d="m31 26.312-.938-1.875-.938-6.562.938-5.625h-.938l-2.812 5.625v.938l-9.375 2.812-7.5-.938v3.75l17.812.938 1.594.938zm-4.688-5.624v2.531l-4.688-.656z" class="primary" style="fill: rgb(242, 169, 0);"></path><path d="M20.688 15.062v-1.874H16z" class="quinary" style="fill: rgb(255, 255, 255);"></path></svg>