<svg xmlns="http://www.w3.org/2000/svg" xml:space="preserve" id="excavator__main_shape" x="0" y="0" version="1.0" viewBox="0 0 32 32" class="excavator" style="background-image: none; background-position: 0% 0%; display: inline; fill: rgb(51, 51, 51); height: 50px; width: 50px;"><path d="M21.625 27.312a1 1 0 0 1-.675-.263 2.85 2.85 0 0 1-1.2.263h-15a2.88 2.88 0 0 1-2.875-2.875 2.88 2.88 0 0 1 2.036-2.75H1.938C.923 21.688 0 20.764 0 19.75v-5.625a1 1 0 0 1 1-1h.875v-.875a1 1 0 0 1 1-1h6.562c.376 0 .705.208.875.516v-.453a1 1 0 0 1 1-1h3.534l.312-.479C15.874 8.762 17.241 7.5 19.75 7.5h.701l5.414-2.707c.139-.069.292-.105.447-.105h2.812c.34 0 .656.172.84.458l1.875 2.906a1 1 0 0 1 .123.811l-.642 2.295.386.385a1 1 0 0 1 .294.707v2.812a1 1 0 0 1-.469.847v2.559c.3.342.469.79.469 1.282 0 .954-.574 1.575-1.261 1.82l-.117.235q.44.845.44 2.164a3.31 3.31 0 0 1-3.344 3.344h-6.093zm-1.451-5.718a2.88 2.88 0 0 1 2.407 3.346l1.101-.366 1.631-4.078v-9.044c-4.054.262-4.615 1.14-4.668 1.246-.174.319-.547.979-.996 1.767.776 2.396 1.082 5.055 1.096 5.174q.006.055.006.112v.938a1 1 0 0 1-.577.905" class="outline" style="fill: rgb(255, 255, 255);"></path><path d="m19.75 22.562-2.812-.938h-2.812V19.75H9.438v1.875H7.562l-2.812.937c-1.031 0-1.875.844-1.875 1.875s.844 1.875 1.875 1.875h15c1.031 0 1.875-.844 1.875-1.875s-.844-1.875-1.875-1.875" class="tertiary" style="fill: rgb(51, 51, 51);"></path><path d="M24.438 7.562h-1.876l3.75-1.874h1.876z" class="quaterary" style="fill: rgb(187, 227, 243);"></path><path d="m18.812 9.438 5.626-2.813.468.937-3.281 1.876z" class="tertiary" style="fill: rgb(51, 51, 51);"></path><path d="M29.594 14.125h.938v5.625h-.938z" class="quaterary" style="fill: rgb(187, 227, 243);"></path><path d="M31 15.062h-1.875v-4.687L31 12.25z" class="secondary" style="fill: rgb(128, 128, 130);"></path><path d="M19.75 19.75s-.938-8.438-3.75-8.438h-4.688v8.438zM26.312 25.375V9.438l.938-3.75h1.875L31 8.594z" class="tertiary" style="fill: rgb(51, 51, 51);"></path><path d="M28.188 8.5H19.75c-.938 0-2.625.188-3.75 1.875-.844 1.312-5.625 8.438-5.625 8.438H16s3.188-5.531 3.75-6.562c.938-1.875 6.562-1.875 8.438-1.875.75 0 .938-.375.938-.938s-.376-.938-.938-.938" class="secondary" style="fill: rgb(128, 128, 130);"></path><path d="m16 18.812 1.406-7.5h.938z" class="quaterary" style="fill: rgb(187, 227, 243);"></path><path d="m15.062 19.75 1.407-5.625h1.406l-.937 5.625z" class="quinary" style="fill: rgb(255, 255, 255);"></path><circle cx="17.875" cy="11.312" r=".938" class="tertiary" style="fill: rgb(51, 51, 51);"></circle><path d="M30.062 18.812c-.562 0-.938.375-.938.938l-1.875 2.812h1.875l.938-1.875s.938 0 .938-.938c0-.561-.375-.937-.938-.937" class="tertiary" style="fill: rgb(51, 51, 51);"></path><path d="m29.125 21.625-.938-.938c0-.562-.375-.938-.938-.938s-.938.375-.938.938l-1.875 4.688-2.812.938h6.094a2.32 2.32 0 0 0 2.344-2.344c0-.938-.187-1.969-.937-2.344M19.75 19.75 16 17.875h-1.875c0-.562-.375-.938-.938-.938s-.938.375-.938.938h-.938v-3.75H9.438V12.25H2.875v1.875H1v5.625c0 .469.469.938.938.938H19.75z" class="primary" style="fill: rgb(242, 169, 0);"></path><path d="M3.812 14.125h1.875v4.688H3.812zM6.625 14.125H8.5v4.688H6.625z" class="tertiary" style="fill: rgb(51, 51, 51);"></path><path d="M19.75 23.5h-15c-.562 0-.938.375-.938.938s.375.938.938.938h15c.562 0 .938-.375.938-.938s-.376-.938-.938-.938" class="secondary" style="fill: rgb(128, 128, 130);"></path><path d="M1.938 14.125h.938v6.562h-.938z" class="shadow" style="opacity: 0.3; fill: rgb(51, 51, 51);"></path></svg>