<svg xmlns="http://www.w3.org/2000/svg" xml:space="preserve" id="loader__main_shape" x="0" y="0" version="1.0" viewBox="0 0 32 32" class="loader" style="background-image: none; background-position: 0% 0%; display: inline; fill: rgb(51, 51, 51); height: 50px; width: 50px;"><path d="M27.25 27.312c-.648 0-1.324-.323-1.682-.938h-.193a1 1 0 0 1-.989-.856 4.75 4.75 0 0 1-3.698 1.794 4.76 4.76 0 0 1-4.632-3.694 1 1 0 0 1-.993.882h-2.239a4.74 4.74 0 0 1-4.323 2.812 4.74 4.74 0 0 1-4.412-3.025L.553 22.52A1 1 0 0 1 0 21.625v-8.438c0-.379.214-.725.553-.895l3.75-1.875c.139-.069.292-.105.447-.105h.875v-.639L4.793 8.01a1 1 0 0 1 .895-1.447c.969 0 2.334.538 2.75 1.956V5.688a1 1 0 0 1 1-1H16a1 1 0 0 1 1 1v.838l.918 4.59q.02.097.02.196v.125a2.1 2.1 0 0 1 .875-.188h5.625a1.94 1.94 0 0 1 1.938 1.938c0 .665-.336 1.27-.88 1.624l-.347.52a2.38 2.38 0 0 1-.004 2.284l.052.197h.118c.016-.242.118-.472.291-.645l2.812-2.812a1 1 0 0 1 1.677.95l-.872 3.49 1.73 6.056.754.754A1 1 0 0 1 31 27.312z" class="outline" style="fill: rgb(255, 255, 255);"></path><path d="M10.375 6.625H16l.938 4.687v2.813h-6.563z" class="quinary" style="fill: rgb(255, 255, 255);"></path><path d="M24.438 12.25h-3.75v.938h3.75L22.562 16h.938l1.875-2.812z" class="shadow" style="opacity: 0.3; fill: rgb(51, 51, 51);"></path><circle cx="23.031" cy="16.469" r="1.406" class="tertiary" style="fill: rgb(51, 51, 51);"></circle><path d="M10.375 6.625H16l.938 4.687v2.813h-6.563z" class="window" style="opacity: 0.3; fill: rgb(93, 201, 232);"></path><path d="M5.688 7.562s1.875 0 1.875 1.875v2.812h-.938V9.438z" class="tertiary" style="fill: rgb(51, 51, 51);"></path><path d="m1 13.188 3.75-1.876h4.688V16h5.624v7.5H4.75L1 21.625z" class="primary" style="fill: rgb(242, 169, 0);"></path><path d="M5.688 11.312h4.688v1.875H5.688z" class="secondary" style="fill: rgb(128, 128, 130);"></path><path d="M1 15.062h1.875v4.688H1z" class="shadow" style="opacity: 0.3; fill: rgb(51, 51, 51);"></path><path d="M11.312 15.062H5.688V16h1.874l.938.938h2.812z" class="quinary" style="fill: rgb(255, 255, 255);"></path><path d="M21.625 12.25h-2.812c-.562 0-.938.375-.938.938v.938h3.75zM23.5 18.812h2.812v.938H23.5z" class="tertiary" style="fill: rgb(51, 51, 51);"></path><path d="M25.375 24.438h-6.562v-11.25l3.375 2.25c1.125.75 1.594 1.125 1.781 1.688.188.562 1.406 5.438 1.406 5.438z" class="secondary" style="fill: rgb(128, 128, 130);"></path><path d="M23.5 22.562H16v-5.624l.938-1.876v-1.874h1.874zM9.438 5.688H16v.938H9.438z" class="primary" style="fill: rgb(242, 169, 0);"></path><circle cx="20.688" cy="22.562" r="3.75" class="tertiary" style="fill: rgb(51, 51, 51);"></circle><circle cx="20.688" cy="22.562" r="1.875" class="primary" style="fill: rgb(242, 169, 0);"></circle><circle cx="24.438" cy="13.188" r=".938" class="tertiary" style="fill: rgb(51, 51, 51);"></circle><circle cx="8.5" cy="22.562" r="3.75" class="tertiary" style="fill: rgb(51, 51, 51);"></circle><circle cx="8.5" cy="22.562" r="1.875" class="primary" style="fill: rgb(242, 169, 0);"></circle><path d="M15.062 14.125v-7.5H9.438V16h4.688v3.75h2.812v-5.625zm-.937 0-3.75-1.875V7.562h3.75z" class="tertiary" style="fill: rgb(51, 51, 51);"></path><path d="M16 18.812h.938v3.75H16z" class="shadow" style="opacity: 0.3; fill: rgb(51, 51, 51);"></path><path d="m30.062 25.375-1.875-6.562.938-3.75-2.812 2.812v2.812l-.938 1.875v2.812h.938c0 .938.938.938.938.938H31z" class="primary" style="fill: rgb(242, 169, 0);"></path><path d="M26.312 25.375h-.937v-2.813l.937-1.874z" class="shadow" style="opacity: 0.3; fill: rgb(51, 51, 51);"></path><path d="M1 19.75h5.625v.938H1z" class="tertiary" style="fill: rgb(51, 51, 51);"></path><path d="M4.75 11.312h.938v8.438H4.75z" class="shadow" style="opacity: 0.3; fill: rgb(51, 51, 51);"></path><path d="M13.188 16h4.688v.938h-4.688z" class="primary" style="fill: rgb(242, 169, 0);"></path></svg>