<svg xmlns="http://www.w3.org/2000/svg" xml:space="preserve" id="grader__main_shape" x="0" y="0" version="1.0" viewBox="0 0 32 32" class="grader" style="background-image: none; background-position: 0% 0%; display: inline; fill: rgb(51, 51, 51); height: 50px; width: 50px;"><path d="M15.062 26.375c-.478 0-.898-.343-.984-.826a10.6 10.6 0 0 1-.136-2.025 4.29 4.29 0 0 1-4.036 2.852 4.24 4.24 0 0 1-2.344-.7c-.691.456-1.498.7-2.344.7-1.807 0-3.4-1.161-4.007-2.812H1a1 1 0 0 1-1-1v-8.438c0-.351.184-.677.485-.857l4.688-2.812c.156-.093.333-.143.515-.143h2.75v-1.4l-.645-.644a1 1 0 0 1-.293-.708v-.937a1 1 0 0 1 1-1h8.438a1 1 0 0 1 1 1v.938a1 1 0 0 1-.938.998v3.54l2.049 1.024h3.418l1.022-3.066a.998.998 0 0 1 1.655-.391l.938.938a1 1 0 0 1 .241 1.023l-.498 1.496h.487c.197 0 .391.059.555.168L29.428 15H31a1 1 0 0 1 1 1v5.625q0 .092-.016.179c.01.101.016.194.016.29 0 2.36-1.921 4.281-4.281 4.281a4.287 4.287 0 0 1-4.066-5.625h-.092a1 1 0 0 1-.373.718c-.168.137-.677.64-.77 1.103-.109.546.076 1.306.156 1.553a1.003 1.003 0 0 1-.808 1.304l-6.562.938a1 1 0 0 1-.142.009m-.876-4.404q.036-.12.076-.234l-.087.043q.007.097.011.191" class="outline" style="fill: rgb(255, 255, 255);"></path><path d="m29.125 16-2.813-1.875H10v-2.813H5.688L1 14.125v8.437h9.375L16 19.75l2.812-2.812h7.5L27.25 19v2.625H31V16z" class="primary" style="fill: rgb(242, 169, 0);"></path><path d="m18.812 17.875 1.876 1.875v-1.875l-.938-.937z" class="secondary" style="fill: rgb(128, 128, 130);"></path><path d="M1 19.75h.938v-6.188L1 14.125z" class="tertiary" style="fill: rgb(51, 51, 51);"></path><path d="M10.375 22.562H1V19.75h15z" class="shadow" style="opacity: 0.3; fill: rgb(51, 51, 51);"></path><path d="M27.25 17.875h-6.562v1.875h-2.813v.938h4.687v-.938h5.626zM26.312 14.125h-7.5L16 12.719V6.625H9.438v4.687h-3.75v3.75h3.75v2.813h5.624l.282-.187 3.468-2.626v2.813h.938l1.875-2.813h4.687l2.813 1.876V16z" class="tertiary" style="fill: rgb(51, 51, 51);"></path><path d="M22.562 20.688H16s-.656.656-.938 1.875 0 2.812 0 2.812l6.562-.938s-.375-1.125-.188-2.062 1.126-1.687 1.126-1.687" class="primary" style="fill: rgb(242, 169, 0);"></path><path d="M29.125 16h.938v4.688h-.938z" class="shadow" style="opacity: 0.3; fill: rgb(51, 51, 51);"></path><circle cx="27.719" cy="22.094" r="3.281" class="tertiary" style="fill: rgb(51, 51, 51);"></circle><circle cx="27.719" cy="22.094" r="1.406" class="primary" style="fill: rgb(242, 169, 0);"></circle><circle cx="5.219" cy="22.094" r="3.281" class="tertiary" style="fill: rgb(51, 51, 51);"></circle><circle cx="5.219" cy="22.094" r="1.406" class="primary" style="fill: rgb(242, 169, 0);"></circle><circle cx="9.906" cy="22.094" r="3.281" class="tertiary" style="fill: rgb(51, 51, 51);"></circle><circle cx="9.906" cy="22.094" r="1.406" class="primary" style="fill: rgb(242, 169, 0);"></circle><path d="M21.625 18.812h.937l1.876-6.562-.938 1.875z" class="secondary" style="fill: rgb(128, 128, 130);"></path><path d="M23.5 16.938 22.562 16l1.876-5.625.937.937z" class="tertiary" style="fill: rgb(51, 51, 51);"></path><path d="M16.938 7.562h-7.5V8.5L8.5 7.562v-.937h8.438z" class="primary" style="fill: rgb(242, 169, 0);"></path><path d="M15.062 16H12.25V7.562h2.812z" class="quaterary" style="fill: rgb(187, 227, 243);"></path><path d="m15.625 12.531-1.031-.562.187-.938-.187-.093-1.032 1.687.188.094.562-.469 1.313 4.5z" class="shadow" style="opacity: 0.3; fill: rgb(51, 51, 51);"></path></svg>