<svg xmlns="http://www.w3.org/2000/svg" xml:space="preserve" version="1.0" viewBox="0 0 32 32" class="generic" style="background-image: none; background-position: 0% 0%; display: inline; fill: rgb(51, 51, 51); height: 50px; width: 50px;"><path id="generic__outline" d="M23.5 27.312a5.7 5.7 0 0 1-5.6-4.688h-4.158a7.06 7.06 0 0 1-6.648 4.688C3.182 27.312 0 24.13 0 20.219c0-2.096.722-3.85 2.015-5.098l-.076.003a.998.998 0 0 1-.95-1.316c.044-.133 1.077-3.069 5.574-3.455v-2.73a1 1 0 0 1-.938-.998c0-.939.679-1.938 1.938-1.938h9.375a1 1 0 0 1 .937.65 3.1 3.1 0 0 1 1.876-.65.998.998 0 0 1 .895 1.447l-.832 1.664v1.647c8.657.734 11.772 3.846 11.905 3.983.274.283.357.701.211 1.068l-1.533 3.833 1.052.526c.337.17.551.516.551.895v2.812a1 1 0 0 1-1 1h-2.157c-.822 2.245-2.917 3.75-5.343 3.75" class="outline" style="fill: rgb(255, 255, 255);"></path><g id="generic__main_shape"><path d="M15.062 16h-.938s-1.875-4.688-5.625-4.688v-3.75h5.625c.656 0 .938.281.938.938z" class="quinary" style="fill: rgb(255, 255, 255);"></path><path d="M15.062 10.375h-1.874l.468-.75-.468-.281-1.126 1.781.469.281.469-.656L15.062 16z" class="primary" style="fill: rgb(179, 178, 178);"></path><path d="M31 14.125s-3.094-3.188-12.188-3.75V7.562l.938-1.875s-1.875 0-1.875 1.875v2.812H16v-3.75l.938-.938H7.563c-.938 0-.938.938-.938.938h.938v4.688c-4.688 0-5.625 2.812-5.625 2.812s1.5-.75 3.75-.938l.938.938C2.688 14.594 1 17.219 1 20.219a6.08 6.08 0 0 0 6.094 6.094c2.906 0 5.25-1.969 5.906-4.688h4.875c0-2.812 1.875-4.688 5.625-4.688-2.812.188-4.688 2.25-4.688 4.688 0 2.625 2.156 4.688 4.688 4.688 2.25 0 4.125-1.594 4.594-3.75H31V19.75l-1.875-.938zM15.062 16h-.938s-1.875-4.688-5.625-4.688v-3.75h5.625c.656 0 .938.281.938.938z" class="primary" style="fill: rgb(179, 178, 178);"></path><path d="M23.5 18.812c-1.594 0-2.812 1.219-2.812 2.812s1.219 2.812 2.812 2.812 2.812-1.219 2.812-2.812-1.218-2.812-2.812-2.812m0 4.688c-1.031 0-1.875-.844-1.875-1.875s.844-1.875 1.875-1.875 1.875.844 1.875 1.875S24.531 23.5 23.5 23.5M7.094 16.469c-2.062 0-3.75 1.688-3.75 3.75s1.688 3.75 3.75 3.75 3.75-1.688 3.75-3.75-1.688-3.75-3.75-3.75m0 6.562c-1.594 0-2.812-1.219-2.812-2.812s1.219-2.812 2.812-2.812 2.812 1.219 2.812 2.812-1.218 2.812-2.812 2.812" class="highlight" style="opacity: 0.3; fill: rgb(255, 255, 255);"></path></g></svg>